/* XPM */
static char *_9a8bd111fbe4cd7d3dd19f1023fb46093oyz1ItkM6l5Zpo[] = {
/* columns rows colors chars-per-pixel */
"64 64 144 2 ",
"   c #0C0C0E",
".  c #0E0C11",
"X  c #110F12",
"o  c #141517",
"O  c #14161D",
"+  c #15181F",
"@  c #151721",
"#  c #151922",
"$  c #181C25",
"%  c #171E28",
"&  c #191E2A",
"*  c #1A1F32",
"=  c #17212C",
"-  c #1A212E",
";  c #1C2332",
":  c #1F2739",
">  c #1F2A3B",
",  c #202737",
"<  c #202739",
"1  c #212A3D",
"2  c #1E2A44",
"3  c #1C2D4D",
"4  c #1F304C",
"5  c #232C43",
"6  c #212F4C",
"7  c #282F49",
"8  c #263146",
"9  c #293147",
"0  c #273249",
"q  c #29344C",
"w  c #29384F",
"e  c #243353",
"r  c #2A3751",
"t  c #2B3954",
"y  c #263658",
"u  c #283659",
"i  c #27395D",
"p  c #2E3D5B",
"a  c #303E5C",
"s  c #293D60",
"d  c #2A3C60",
"f  c #2F3F60",
"g  c #2F3F61",
"h  c #2F3F60",
"j  c #303F60",
"k  c #313F62",
"l  c #2F405E",
"z  c #2E415F",
"x  c #2F435E",
"c  c #2F415E",
"v  c #31405D",
"b  c #30415F",
"n  c #31425E",
"m  c #31425F",
"M  c #2E4161",
"N  c #2F4262",
"B  c #2F4263",
"V  c #2F4463",
"C  c #2F4262",
"Z  c #304061",
"A  c #324160",
"S  c #314260",
"D  c #304361",
"F  c #334261",
"G  c #324361",
"H  c #314162",
"J  c #324162",
"K  c #304363",
"L  c #324263",
"P  c #334263",
"I  c #334460",
"U  c #314462",
"Y  c #334462",
"T  c #324563",
"R  c #344563",
"E  c #334164",
"W  c #304364",
"Q  c #324264",
"!  c #334364",
"~  c #334365",
"^  c #314367",
"/  c #344364",
"(  c #344265",
")  c #314464",
"_  c #304564",
"`  c #314465",
"'  c #324565",
"]  c #334664",
"[  c #324566",
"{  c #334666",
"}  c #324766",
"|  c #324667",
" . c #334667",
".. c #344465",
"X. c #354664",
"o. c #344765",
"O. c #364765",
"+. c #344466",
"@. c #354566",
"#. c #354567",
"$. c #364566",
"%. c #344767",
"&. c #364667",
"*. c #334465",
"=. c #334867",
"-. c #354866",
";. c #344866",
":. c #334569",
">. c #334768",
",. c #354569",
"<. c #374568",
"1. c #344768",
"2. c #364668",
"3. c #374768",
"4. c #34466A",
"5. c #35476B",
"6. c #354768",
"7. c #354868",
"8. c #344968",
"9. c #344869",
"0. c #354869",
"q. c #364969",
"w. c #36496A",
"e. c #364B6A",
"r. c #364A6B",
"t. c #374A6B",
"y. c #354C6B",
"u. c #36486C",
"i. c #374E6D",
"p. c #354969",
"a. c #384D6A",
"s. c #384B6C",
"d. c #3B4B6D",
"f. c #394C6C",
"g. c #394C6D",
"h. c #3A4D6D",
"j. c #3A4D6E",
"k. c #3B4E6E",
"l. c #394B6C",
"z. c #3E526F",
"x. c #374F73",
"c. c #3A4E72",
"v. c #3D5172",
"b. c #455B80",
/* pixels */
"& & & > 5 5 5 5 5 t p p t 0 q w w r t t a $.$.t.t.t.t.t.t.u.t.t.t.t.u.t.t.t.t.t.t.' S $.t t r w w r t r r r r r r r w 5 5 5 5 5 ",
"& & & > 5 5 5 5 5 t p p t t t t t t $.$.$.' t.t.3.t.t.y.t.t.t.t.t.t.t.t.t.t.t.t.-.' 3.' $.! ! t t t t t r r r r r t t 5 5 5 5 5 ",
"5 5 5 5 5 r t t p $.$.$.' ' $.' ' $.! ! B 8 5 0 ! ' $.3.3.' 3.3.:.' t.:.3.' 3.' S q 8 8 5 ' S S $.$.$.$.$.$.$.' / t t r t t 5 5 ",
"5 5 5 t t t S ' ' $.' ' ! $.$.' ' x p p r p j B S ! ' / ! ' ' / ' ! $.$.! ' S S S g S B w S S ! $.$.$.:.$.' $.$.' ' b r t t w 5 ",
"5 5 5 t p x ' $.' ' $.! 0 0 0 0 0 b x B S S S S S ! S V S S ! B S ' ! ! ! ! S B S S S S S S S j p r 0 8 S b g ' $.$.$.t t t t r ",
"1 5 t p p S $.' ' j S r S S S S S S S S S B S B S S S B 3 e ' B ' ! b 2 S S ! ! B ! S S S S ! S S S S S w t p R S ! ! ! ' r t t ",
"0 t $.$.$.$.' $.a w r ' S S Y S d # # # # O S S S S S S # # S S b p 6 # S ! S ' ! S O # # # @ t S S S ' ' Y S 0 0 $.$.$.' $.t t ",
"t 3.$.' $.$.S p S $.! ! ! g # # # # # # # Y Y S ! ' S S O # # # # @ # # S ! ! S S S B ! # # # # # # O ! S $.' Y $.t ! $.' ' $.t ",
"t $.$.' $.t S ! ! ! Y t o O # # # # # # o S S ! ! ! S S # # # # # # # # S S S S S S ! S # # # # # # + o # e ' $.R $.t ' ' $.' V ",
"t Y $.t p t S S ! R S # # # # # # # # # O ! ! S ! S S V O + # # + # # # S S B S S S ! ! # # # # # # @ # # O ' ' R R t x p Y Y R ",
"b ' $.r t ! S S S X # # # # # # # # # # # # S S S B ! ! O # # @ # # # # S S S S S ! @ # # # # @ # # # # # # # S ! Y Y t t S S Y ",
"w r t ! Y Y ! S # # # # # @ # # # # # # @ # # # @ # # @ # @ # # # # # # @ # # # @ + + # # @ # # # # @ # # # # #   ' ! $.' t t t ",
"g.t.w $.$.S 1 # # @ @ # # # # # # # # # # # # # @ # # # # @ # # # # # # # # # # # + # # @ # # # # @ # # # @ # # # # ! $.$.w r t.",
"g.s.q ' $.! 5 # + # # # # # # # # # # @ # # # # @ # # # # # # # # @ # # # # + # # # # # # # # # @ # + # @ @ # # # + S $.$.w w s.",
"g.g.w $.t.' 5 # # # @ # # # # # # # @ # # # # # # # # # # # # # # @ @ # @ # # # # # # # # # # # # # @ # # # # # # # ! $.' w w g.",
"g.g.0 $.t.$.5 # # # @ # # # # # # # # # # # # # # + # # # # # # # @ # # @ # + # # @ # # @ @ # + # # # # # # # + # # Y 3.$.9 0 s.",
"g.g.0 3.t.' 5 # # # @ # # # # + # # # # # # # # # # # # @ # # # # # @ # # + # # # + # # # @ # # # # # # # # # # # # $.t.$.$.0 g.",
"g.g.0 t.t.$.p 3 # # # @ # # ' Y Y S # # # # # + # # # # @ # # # @ @ # # # # # @ # # # # # # @ B $.$.p # # O # # . $.$.t.t.' 0 s.",
"g.a.0 t.t.t.t.t.g o # # t.$.t.t.$.' $.S # # $.$.$.3.3.e # # # # # @ # # 3 Y $.R R $.o # p $.$.' ' $.$.$.# # # e $.' 3.t.:.' 0 s.",
"g.g.w t.t.t.t.=.' O O # ' t.t.3.$.3.$.' $.d ' $.=.' ' ! + O # # @ # # 4 ! ' $.$.' ' i e S $.' $.' $.3.$.# O 0 $.' :.3.t.3.' 0 s.",
"g.g.8 t.t.3.' $.' ! $.o + y $.$.$.$.' ' $.t.$.' $.' ' ! B ' O O # O = / ' $.$.' ' $.' ' ' ' ' 3.3.t.3.+ O e t.3.:.t.t.$.' p 0 i.",
"Y $.8 R t.' ' $.' ' $.$.u e $.3.$.$.$.' $.$.' 3.$.$.$.' ' $.! 8 # $.' $.' ' ' $.' $.3.$.3.$.$.$.3.$.$.e $.' t.t.t.:.$.S g 5 0 s.",
"b ' 5 b ' $.$.$.$.$.3.$.t.3.$.' $.' $.3.' $.$.$.' ' $.$.$.$.$.$.' $.Y V Y $.' ' Y ! $.$.' R ' ' $.Y $.$.$.! $.R ' =.t.3.t.8 8 x ",
"b t 5 q q 0 t t 5 5 8 w t t t q w q w q w q q 0 r q w w w q r t r r w w w r w w w w r w w w w q w r r r r r 5 1 1 0 t r w w q p ",
"0 5 1 a S 3.t.t.5 b.v.v.v.v.v.c.c.v.v.v.v.v.v.v.v.v.v.v.v.c.v.v.v.v.v.v.v.c.v.v.v.v.v.z.g.t.t.s.v.v.v.v.z.v.t.q 5 g.3.t.t.t.0 0 ",
"w 0 0 Y $.t.t.:.1 v.3.' ' Y S ' ! S S S S S B S S S B S S B S S S B ! B S B S S S S S ! ' Y ! ' $.! S ' $.3.t.0 5 t.$.S S t.$.r ",
"r 0 0 $.t.$.$.' 1 c.$.Y ! ' S $.$.' ' ' :.' $.! ! $.$.$.$.$.' $.' ' ' ' $.$.' ' ' $.' ' ' :.$.' ' $.! $.$.$.$.1 ; t.t.S $.t.t.! ",
"t w q $.t.$.$.S 1 c.' $.' $.3.# $ # # # # # $ # # # # $ # # $ # # # # $ # # # # # # # # $ # $ # # a ' $.! S ' < = $.$.b t.t.t.t.",
"t 0 q ' t.$.R $.1 c.$.$.0 0 $ # # # $ & % & % & & & & % & & & & & & & & & & & & & & & & & & & # # $ # 0 ' b ' 1 ; 3.$.S u.t.t.t.",
"t 0 0 ' $.t.S p 1 c.$.' 0 8 $ # $ # $ & & = & & & = = = = & = & ; = & & = & = = = & ; = & & % $ $ $ # 0 $.' ' < = 3.t.' t.t.t.t.",
"t 9 0 ' t.t.t w > c.' p $.' $ $ # # # # # # # $ $ $ # # $ # $ $ $ # # # $ # # # $ # $ # # $ # # $ $ # $.0 0 ' : $ $.3.3.t.3.$.' ",
"0 8 0 $.t.' t 0 < x.$.' t.3.$ $ # # = ; = ; = = $ ; = = ; = = = = ; = = ; * = ; $ ; ; = = ; ; # $ $ # $.$.p $.: & Y q w w S Y ' ",
"0 8 0 ' t.$.r 0 : v.t.$.3.t.$ $ # $ = = = = ; ; $ ; - ; = = ; = ; ; = - = ; ; = $ ; ; = = = = $ # $ # ' $.b $.: = t w w w x ! ' ",
"t Y 0 $.$.$.t 0 : v.3.3.t.t.$ $ $ $ = ; = = ; ; $ - = = = = ; - ; ; ; ; = = ; ; $ = = = = - ; $ $ $ # $.$.$.$.: = t r t r p p p ",
"5 0 0 S R ' w 5 : v.t.t.-.t.$ # $ # ; ; = ; - ; $ ; = ; ; = ; = = = ; ; = ; ; ; $ ; ; - - ; ; $ $ $ # $.$.3.3.: = w S p t 0 0 b ",
"w $.$.S a t r w : x.t.t.' t.$ $ $ # = = = = ; ; $ = ; = ; = = - = = = - = - ; = $ ; = = - ; ; $ $ $ # $.$.$.$.: & ' S t t t t S ",
"0 q p 8 5 5 8 5 ; v.t.$.t.t.$ $ $ $ = ; = < 1 1 $ 1 1 1 1 1 1 1 1 1 1 1 1 1 1 1 $ 1 1 1 1 = ; $ $ $ # t.3.t.3.; = < 5 w w t r 0 ",
"q w 0 0 0 0 8 8 ; u.S Y ' t.$ $ $ $ = ; = : 1 5 & 1 1 1 1 1 1 1 1 < 1 1 1 1 1 1 $ > 1 1 1 = ; $ $ $ # $.3.$.-.; ; < 5 0 0 8 0 5 ",
"r p 0 q 0 0 5 1 : x.$.-.g B $ $ $ # ; = ; < 1 5 $ 1 > 1 1 1 > 1 1 1 1 1 1 1 1 1 % 1 1 1 1 = ; $ $ $ # t.$.$.t.; = 1 0 0 0 t t : ",
"8 t 0 8 0 0 1 1 : x.' p p S & $ $ $ ; ; ; : 1 1 $ 1 1 1 1 > 1 1 1 1 5 5 1 1 1 < $ 1 1 1 1 = ; $ $ $ # $.' $.3.; ; < 0 0 0 w r r ",
"5 9 w t 0 0 1 1 : c.S S 8 w $ $ $ $ ; = & < 1 5 $ 1 1 1 1 1 1 1 1 1 1 1 1 1 1 1 $ 1 1 1 1 = ; $ $ $ + ' w w r = = < 0 0 9 0 0 0 ",
"1 1 q 0 8 0 1 < : c.$.Y 0 q & $ $ $ ; ; = : 1 1 & 1 1 1 < 1 1 1 1 1 1 1 1 1 1 1 $ 1 1 1 1 = ; $ $ $ # $.w w w = = < 0 0 0 0 0 0 ",
"< < 0 0 0 q 1 < ; c.! p w q % $ $ $ ; = ; : 1 1 % 1 1 1 1 1 1 1 > 1 1 1 1 1 1 1 $ 1 > 1 1 = ; $ $ $ # ! w w w = ; < 0 0 0 0 0 8 ",
": < 0 0 0 8 < < ; p t w w 0 % # $ # ; ; = < 1 5 % 1 1 1 1 1 1 1 1 1 1 1 1 1 1 1 $ 1 1 5 1 = ; $ $ $ # x w w w ; ; < 0 0 0 0 0 1 ",
"< < < 0 0 5 < < ; S t 0 w w $ $ $ $ = = ; : 1 5 $ 1 1 1 1 1 1 1 1 1 1 1 1 1 1 1 $ 1 1 1 1 = ; $ $ $ # S w w r = ; < 5 0 0 0 0 < ",
"< < , 5 < < < < ; S t q w 0 % $ $ $ = = ; < 1 1 % 1 1 1 1 1 1 1 1 1 1 1 1 1 1 1 $ 1 1 1 1 = ; # $ $ # w w w w = ; < < < 8 0 1 < ",
": < < < : < < : ; Y t w 0 0 % $ $ $ = ; = < 1 1 $ 1 1 1 1 1 1 1 1 1 1 1 1 1 1 1 $ 1 1 1 1 = ; $ $ $ $ w w w r = = < < < < 9 5 < ",
"< < : < < < : : ; S p r 0 0 $ $ $ $ = ; = < 1 1 % 1 1 1 1 1 1 1 1 1 1 1 1 1 1 1 $ 1 1 1 1 = ; $ $ $ $ t w w w = = : < < , < : : ",
"< < < : < : < : = t r w 0 0 & $ $ $ ; = ; : 1 1 & 1 1 1 1 1 1 1 1 1 5 1 1 > 1 1 $ 1 1 1 1 ; ; $ $ $ # r w w w & & : : < < < < : ",
"< : : < : : : < = t 0 0 r r & $ $ $ ; = ; < 1 1 & 1 1 1 1 1 1 5 1 1 < 1 1 1 1 1 & 1 1 1 1 = = $ $ $ # w w w q & = : : < : : : < ",
"< : < : : : : ; & r 0 p r 0 % $ $ $ ; = ; < 1 1 $ 1 1 1 1 1 1 1 1 1 > 1 1 1 1 < $ 1 1 1 1 = ; $ $ $ # q 0 w q & & = : : : : < , ",
": : < < < : : ; = t w t 0 0 & $ $ $ ; ; ; : 1 1 $ 5 1 1 1 1 > 1 1 1 1 1 1 < 1 1 & 1 1 1 1 = ; $ $ $ # w q w w & & : ; : : < < < ",
"< < = = ; : : : & p t 8 5 5 % $ $ $ & = = ; ; ; $ = ; = = = = = ; ; = = = = = ; $ ; ; = = ; ; $ $ $ # q 5 5 0 & & : = : ; : : < ",
": : = & = : ; = & q 5 0 > 5 % $ $ $ ; ; = ; = ; $ ; = = ; = ; ; ; ; = = ; ; ; = $ - = = = = = $ $ $ $ 0 1 5 0 & $ & : $ & & & < ",
": : & & & & & & & u 0 q 1 < $ $ $ & $ $ $ $ $ $ $ $ $ # $ $ $ $ $ $ # & $ # # $ $ $ $ # $ $ $ $ $ & $ 0 1 1 1 % & & & & & % & % ",
"& & $ & $ & & & & = ; ; = ; % & $ $ $ $ $ $ $ $ & $ $ $ $ $ $ $ $ $ $ $ $ $ $ $ $ $ & $ & $ $ % $ & % = = & & & & & & & & & & % ",
"& & & & & & - : Y Y R $.b ' Y $.! ! ! ! S S S S Y Y S ! ! S S S / / / Y Y ! $.$.$.! ! S ! ! $.! ! / $.Y ! S ! Y ' ' S $ & & & & ",
"& & & = & < < : < 5 5 5 1 < < 5 5 w q 0 5 < : : < : 1 5 1 5 5 5 5 1 5 5 1 1 1 1 1 1 5 5 5 5 1 < 1 > 1 1 < 5 < < > 1 5 & % & & & ",
"& & & & & : < < : < : : : < : < : : < < < : < < < > < < : < < < < < < < : < < < < : : : < < : < < : < 7 5 5 0 0 0 5 < & & & & & ",
"& & & & % % & $ % & & % $ & $ % % % $ % % $ % $ % & $ $ $ % $ % % % % % % % % % % $ % % % % & % & $ $ % $ % % % & & % & & & & & ",
"< r t t t t t t t ' ' R $.' $.' Y $.$.! ! S ! ! ! ' ! ' ' $.Y ! ' ! ! ! ! ! ' Y Y ! ! ' S $.! ' ' ' Y $.$.$.$.$.$.! ! t t t t t ",
": 1 : 5 1 1 > 1 : 5 > : : < < < < < < < 1 < < 1 0 0 0 0 0 0 0 0 0 0 0 0 0 0 0 0 0 0 0 0 < < 1 1 1 1 < < 1 < < < 1 < < : : < < : ",
"; < : 1 1 1 : < : : : : < < < < < : < < > : < : < < < < : : < < : : < < , < < : < < < < : < : : : : < < < : : : < < < : : < < < ",
"= & & & = & % & % & & & % & & & & & & & % = & & & & & & = & & & & & & % % % & & = = & & & % & & & % & % & & % & & & & & & & % & "
};
