/* XPM */
static char *_c4c2c99e6b3418689811ec92012baa8pZRTb3bMzycNw26G[] = {
/* columns rows colors chars-per-pixel */
"64 64 163 2 ",
"   c #0C0B07",
".  c #0D0D0A",
"X  c #100E0B",
"o  c #0F100B",
"O  c #14140F",
"+  c #161611",
"@  c #191713",
"#  c #171813",
"$  c #1A1B15",
"%  c #1D1E19",
"&  c #201B15",
"*  c #201F1B",
"=  c #1E211B",
"-  c #242216",
";  c #22231D",
":  c #29251C",
">  c #2B291F",
",  c #252621",
"<  c #292723",
"1  c #272822",
"2  c #2B2B25",
"3  c #2D2E29",
"4  c #312D26",
"5  c #312F2A",
"6  c #2F302A",
"7  c #333127",
"8  c #34332C",
"9  c #39362D",
"0  c #36382D",
"q  c #3B392E",
"w  c #363631",
"e  c #3A3731",
"r  c #363832",
"t  c #3C3B34",
"y  c #3E3E38",
"u  c #433D2F",
"i  c #413E34",
"p  c #413F39",
"a  c #3F403A",
"s  c #434136",
"d  c #494336",
"f  c #44433B",
"g  c #49463C",
"h  c #46483D",
"j  c #4C493E",
"k  c #514C3F",
"l  c #464641",
"z  c #4A4740",
"x  c #4D4B42",
"c  c #4E4F49",
"v  c #524E43",
"b  c #534F48",
"n  c #545145",
"m  c #595346",
"M  c #565349",
"N  c #5A564A",
"B  c #5D594D",
"V  c #5E5B51",
"C  c #625C4E",
"Z  c #635E52",
"A  c #685F50",
"S  c #64604E",
"D  c #666154",
"F  c #6A6455",
"G  c #6E6956",
"H  c #666359",
"J  c #6B6659",
"K  c #6E695A",
"L  c #706957",
"P  c #71675B",
"I  c #736D5D",
"U  c #736C5C",
"Y  c #746E5E",
"T  c #756E5E",
"R  c #756F5F",
"E  c #766F5F",
"W  c #726B5C",
"Q  c #77705E",
"!  c #76715E",
"~  c #76715E",
"^  c #78715F",
"/  c #79725F",
"(  c #6E6A60",
")  c #736D61",
"_  c #706E61",
"`  c #756D60",
"'  c #746E60",
"]  c #756F61",
"[  c #756E61",
"{  c #777060",
"}  c #777161",
"|  c #767062",
" . c #777163",
".. c #767161",
"X. c #787161",
"o. c #7B7261",
"O. c #787063",
"+. c #7A7162",
"@. c #797262",
"#. c #7C7563",
"$. c #7C7763",
"%. c #7A7267",
"&. c #7B7565",
"*. c #7A7466",
"=. c #7E7564",
"-. c #7C7764",
";. c #7E7566",
":. c #7D7767",
">. c #7A7464",
",. c #7F7866",
"<. c #7E7669",
"1. c #7F7868",
"2. c #817967",
"3. c #827A67",
"4. c #837C67",
"5. c #887966",
"6. c #807969",
"7. c #817A68",
"8. c #80786B",
"9. c #817C69",
"0. c #837C6A",
"q. c #837E6A",
"w. c #847D6B",
"e. c #867E6B",
"r. c #837C6B",
"t. c #897E6D",
"y. c #857D70",
"u. c #887F70",
"i. c #88816E",
"p. c #89816F",
"a. c #878070",
"s. c #878070",
"d. c #888171",
"f. c #8A8170",
"g. c #888370",
"h. c #8A8371",
"j. c #8D8771",
"k. c #8C8573",
"l. c #8E8673",
"z. c #8E8574",
"x. c #8B8473",
"c. c #8E8976",
"v. c #8F8975",
"b. c #8F8878",
"n. c #928576",
"m. c #918976",
"M. c #91877B",
"N. c #978F7C",
"B. c #938C7A",
"V. c #998E7C",
"C. c #98907D",
"Z. c #99927E",
"A. c #968E81",
"S. c #979080",
"D. c #9D9280",
"F. c #9D9583",
"G. c #A29783",
"H. c #A19984",
"J. c #A69B85",
"K. c #A19984",
"L. c #A39C89",
"P. c #AEA48B",
"I. c #ACA28E",
/* pixels */
"H H L Z M V V Z Z V z 2 0 M N b Z H V V N x N V Z M B x v j f , 2 x z x D N N M l x n H D V D N 5 ; ; ; 2 f x g z M g z M V V M ",
"U :.7.w.K K J w.K K C P P N.z.D.u.0.%.I 0.X.7.K K c.h.v N _ e t $ F j.i.H { 2.J #.X.h.#.0.J B Z 2.#.7 ; P.Z.P L { I { C F _ F H ",
"F B K j.&.8.:.H V &.U N H J.C z.P F X.Z U I Z H H h.K N J H 7 t * J.L G Z K V N P L &.K K K C Z L I ; , j.L L J X.:.Z G B F J Z ",
"F N I F h.7.K B L F C Z j j U I P K C P I I L K P I K Q J D K i 9 h.K B F F I a.D D K K I L F L Z C 7 2 :.Q Z F Z m C Z Z F F H ",
"Z N { &.P C b v K K Z z 3 n F K L Z K A H Z ' K F J F N C ' s g B ^ Z H H B D H B Z C X.X.Z X.P S t 8 * { K G N N x Z N H H H H ",
"Z Z n M F Z B Z P Z Z M 2 n N F K N ' n ' G F J M ' Z Z I D j g j w.J a.K C B N H B &.Z K P Z H s l s ; Z P V C N C K n K j p K ",
"s 7 N F Z Z K D Z M M g p g C B ' K H F K n F I Z B C I g N m p 8 s X.H Z H B N F J 7.%.H Z B t C &.s , L N D C G B Z N v C B N ",
"D F v r Z N Z ' j N j s t f F K g D J C B I H F B V N z H Z F w , 2 q H t z M F M K N L Z t m Z K M 9 ; t 8 B C t B L N M B N x ",
"M v g g Z N B H B m j 0 e e C n I Z Z N B Z N g N N N Z J V t s i n t N Z Z B B x v g x x g n v g e x ; { C f m M F H j f M x e ",
"t f 2 i i q 8 w g 8 7 < 2 < q 8 0 g e v q 9 s g t i v t 0 2 ; , , s j 3 0 x M 4 v q t g f s j q e e 9 % < 3 g g g N e 9 7 q , s ",
", ; , ; ; % % % , ; ; ; ; ; % ; ; ; ; ; ; % $ = ; ; ; = # % ; ; ; , , ; ; ; ; % $ ; ; ; ; ; ; ; ; ; ; = ; % ; % ; % = % ; ; ; % ",
"B t.>.' K , x n F w.0.m.p.F.Z N K G B Z P g f 9 f 7.z.w.{ F.K 7.o.I v B h.r.#.w 0 < x.V.e.B X.U I F m j U G G g f z $ 2 p F ' I ",
"X.Z P B K g x Z D.0.P &.H H K I X.&.&.F _ N , i m.i.Z Z { &.J 1.Z h.K Z J G 7.n 2 I.z.H I K B.I X.J F Z F D P B D J , B h.P H B ",
"H Z L B N g v K H F U G F J Z G ^ n { F I Z j n i.F C Z B ' F J S Z Z D K Z K B : z.F D Z N m G F Z I P C Z D K F n 3 B U n n K ",
"B Z Z Z N 0 v F F B M F K Z K >.N F K B z n x B K Z C Z D Z F K F H K B J H C B ; 7.C D F t m H Z K B N H Z F j Z v 0 B K N B B ",
"B F G B g 8 I x F J B Z Z H Z g K H n N J n g i K Z F B N Z K B F v C D B D C C ; j N Z B F F Q B B F I s C N B x s v j M H B n ",
"B V Z g N 2 I H C I n F m I Z N Z B C K F g 0 g N Z Z J D C F J N n C v C J M N < g F C H K H L N K L K D B F v 8 g v 0 z H K i ",
"K K s 8 s 8 s f F Z s t B v j Z F D B B n i 3 t B t M Z v B N n Z J N N Z B n e + 8 t I B H C H C M v v Z B M x g N t v :.s n x ",
"V B s f w 8 3 8 N H N B x M F M t g K v 8 8 p x j t 7 B C N K I M x v n C U 8 2 $ Z B m N C n C x g s x Z N n 8 v f 8 s H i 6 n ",
"g 0 t 9 q 9 2 q i 8 x N v v B j B N m 0 8 i w ; < M C t j v j t j H i e B i q 1 % t 2 4 e Z D n v B 9 s f 0 8 k d j 7 4 t m F s ",
"% ; , % % % $ = = ; = $ + $ % ; ; ; % ; , = % % ; ; ; % % $ X o O % % = ; , $ $ % % * = = % , = % $ $ = $ ; % $ $ $ $ % $ = $ $ ",
"g x B V H h.J n n n n g ; 3 f x v J N H M B Z m.Z.D B H < 1 % % t V V M n M H B.K Z N n J Z t t > 2 3 0 V N x n M V a.m.y 3 z t ",
"X.Z J H K :.C X.P Z F L 9 g n 7.P Z 7.I K ,.F K D Z I B F &.t ; F.m.Z F :.w.I D &.X.m.F P Z H P j g 8.<.F C x Z B I H 7.K K s t ",
"I H H B I F F B Z Z F v z v <.K :.P F B { P J N { H B Z P y.g ; B.F J B Z Z I 7.H P J D P Z n K g v 7.K H C n b H B n n Z N B t ",
"P F H K D Z J Z K N J F r n >.J H I Z F { K J Z D K H F H J H < ' K B D F V B M K H F H Z F { n i F v B M m n G K x Z N B N M j ",
"F Z D F D C N C n n &.C i B L F G N X.P F B C K F F S K L B %.; H C C I F B m I g Z C D C H C M q H M B B B B B n { Z x j N B j ",
"M H F Z N Z N s K Z B N j j N F H J H D Z P F B H N P K F F x = L Z N Z K G >.V Z M C F H Z N s ; B M x B n Z B H N B n N N B k ",
"Z D Z x M N H N n j B F f t e t B B Z J F C K Z N B j g B J 4 ; Z n N Z K K M M J B x Z Z { ' w ; i i f n N n I B N B N Z N n 5 ",
"0 n n n Z F B N n n B g i t C K 5 B C B j n v %.v N N n n 7 7 ; b < v V F m N n C B H D Z g q t < n b n j B C g n N x n N v s g ",
"M 6 z g v g p z j x i 3 t 1 t g s g 0 0 t f 8 x 8 2 s 8 e z 8 % 8 v t N f f g n M g z N j x g t ; 8 6 p 8 n x v v v s 6 g 0 3 9 ",
"w t p j s i r t t r 8 1 4 ; 8 , s s 3 8 8 6 8 7 , 8 q 9 6 8 q % < 2 8 0 8 e t g i e e s g g s , ; ; , 2 3 i f g f t 0 2 8 , 2 2 ",
"J K D N , 1 ; v Z V N n F v.:.n Z I M B g e 2 = z Z F N M M J 7.7.{ K I N B 2 $ < < , n N x I &.7.w.0 V n N v q r = g M N M N n ",
"m.{ y.X.f 8 x &.i.0.z.Z 7.#.B.J.h.n.G.A.N n 2 q Z I.S.c.J.K X.1.z.c.K F.{ :.x 3 1 , x.h.b.P I L F ' Q :.' :.w.8 s 8 M F.b.w.w.w.",
"J M Z V n M V >.N H B H G F D Z K P B F B B f ; z.Z C B U M B N Z J B K B H { Z $ v I Z K N L F X.Z x M D B M G v g I M N N B B ",
"M F Z B B f Z :.B M Z %.I #.P B B P B H N Z t $ J K C N C Z v G D Z N H K C n C $ j n Z B M M B K { C X.M N N N v t G n n C M g ",
"G N B B B 3 f H B H G B N D B F t F K v Z N t 0 P Z B C Z x >.H C f H K Z N L x ; v F N B Z D H N V F D N n D m 3 # K B N v C v ",
"N F N N x 8 s M B ' I x C B Z g X.K Z s n j t 1 g N D K Z Q Z Z P M U N n N n 6 ; p P N Z D Z f K L F H B C n f 3 # M X.K v b n ",
"C B m j g , Z I B H C C C B F :.C N H k s s 8 O Z g ; C B B C Z Z N v n Z { g t $ 8 s F M n s F n n F Z m N t g r + z B x C N n ",
"f n F N w ; v H V N n C C N v D C B n 0 s v t O x Z x x j F B B t 3 t N C x g s $ y f z n t F B s e B B N B t g i $ t j F H N x ",
"m C n 9 9 < 2 9 B C C s g s s f g g 3 i s j e : g H n H 9 t s s n i 7 q t q d k = i C B s f C j g u m C n k q t s $ i s e B d i ",
"s t 0 3 2 1 ; 8 0 f t t f g q f w 3 e t 6 3 , , 2 6 9 8 8 3 0 3 e t 6 3 9 e 9 8 ; , 1 3 8 w e 2 3 f 3 3 6 7 8 2 6 $ 2 2 8 e 2 5 ",
"; ; & ; @ @ : : @ $ O o o . O @ + ; $ ; : $ $ 2 7 2 9 i f 8 $ $ y N M B V j g g 7 q % @ $ @ + . X $ . + O + % % - ; @ @ O   X   ",
"F h.%.J &.:.0.K B _ D x j f F F.z.m.w.0.F B.( B.K.Z.K.c.B N > ; v Z M.J K I 7.r.B.8.A.z.7.z.w.h.8 t $ H w.K D K :.x.<.i.h.r.X.n ",
"K Z v F B B G L C I B I N p I Z D C B { x I C P F b C Z C C v 2 X.{ N N C N F n N n n v F X.G F B 9 X.L.K C N L B M C N n N v g ",
"C Z M H v n M N F ' F x x g D B B G v n J K Z H N B Z K Z n N % <.F V Z Z n P B H K Z F Z B N N j g w.Z N F K z n v n Z C n M j ",
"M n D B V f f m K H H h F f C Z n v H B B v F f Z N P s H I n ; v Z B M V K z B N N Z Z N B C D j t z.Z v B F N Z D n g n M n v ",
"D n N N m m x B C n n v n s F D n B B H n n C D C N n t C v s ; C F Z m B Z m k j C B v Z C m v C e I b j N Z C x g Z C C v B v ",
"V G C g F H n N B j g x s t B n L K N 9 H Z j B N n f D B g 4 % m e e N K V M v t g N Z B Z f v 0 2 n z n v M s x N f t r n v N ",
"v N j x B j g v n s v g t w s N C g t C B j s j v n F K g m 7 % C g 9 B n i v n s n n x m n s t 9 7 0 x 9 m B s x v 8 9 t g v 2 ",
"e f 3 x g x x x v B v i 2 8 e v v g N n x n H x Z f s t j 3 9 $ 2 3 x g e z t v v 0 f j 8 v n s g 2 4 8 f i g s g M B t f n i e ",
"j 8 2 t 0 t t w 8 0 i e ; ; s g g g v t f j x x 3 b j f 8 8 e $ ; 8 t y 9 e 9 f 8 s 8 8 e f g w v ; = 8 t s p e 8 g x t 8 t t 4 ",
"7 ; 8 ; 8 , = @ q g t 8 % @ $ @ $ ; $ # # + X % % $ % $ $ $ % = % % $ $ $ % % $ ; ; * < t < ; $ $ O $ $ ; ; ; 3 4 d 7 i t i t q ",
"v x x v t 8 $ % t n N M M J N M v M x f t % $ 6 t n M c v x N N Q %.V n x x f 2 $ , f v x g t 8 B v N n x g t 8 e 8 $ w t j x x ",
"X.Z G n n g 9 i &.h.B ( B Z #.I Z M L B v J , v N.1.B H g I Z K H H m D K x F B ; i P >.s G w.1.X.j.F.N.I K 0.N w q , e v Z.h.7.",
"b x N v v C 3 f F z v D K J n Z Z B Z x V B 8 N h.B B B x N C K N Z B M i B B M 1 J H v Z J B B n N C Z v B x x M s , K 7.n N k ",
"v n x n Z j 3 I f n j n v v m M G Z Z x n B 2 K P N n M k H C B f w B M x v n Z ; J N n m x v j m N n x F N n j N v ; X.F f v g ",
"n v n f n g 7 B v x m B b v n B F F N s v n < B G C F v m m N n 6 g n x N n n v w n B n m y B v s t C n K B x n v j , G B n n j ",
"v B N v t i : e t n C v j M x x n v g x b 9 6 M v B v N B N K D v z M K n v x 3 2 x v x t n j t B Z M v g g x j x 0 % B v v n 9 ",
"v e F x N v $ 7 9 B Z v k n j N j v n n t i < s i n C v C v C v m C v n e i q w # 9 v m v b j v C C H v n i v v t i ; v s x v g ",
"z n 5 w v t ; t C r j n v M j e B v 6 9 b i % 3 s x n v i z g j k j g 8 y x i e % e n n n x j x B e v a t j e 8 n t = v f g g j ",
"j e 5 f 0 t % , 8 3 g n n v e t v 3 f e s t = 7 y x v t i g j f x x w x t f s w $ g e f j z f j 0 t t g x v f 0 s t $ w g e 3 g ",
"9 e t t > < $ $ 7 ; t t 3 , t s , t t 4 3 2 $ ; = ; 3 t 7 2 t 8 3 8 8 3 0 6 , ; # ; 7 t j s 9 2 9 0 g v i t i 7 t 9 $ 2 g t t ; ",
"% % = = % $ $ $ = ; $ % % % % = % $ % % % % $ % $ % % % $ $ % $ % % % = % $ % ; % % % $ % % % % % % % ; % % % $ % $ $ % % $ $ $ ",
"5 C m x U g 5.L B L L j 5 % s n C ^ t.I F M 2.L I m n m n f 2 3 s 8 C n.L I L K g 8 z M f F F G j B 8 8 s t a z b F Z g g f g g "
};
