/* XPM */
static char *_a61c9908ecd4fdc88f0ddd9e10f427aHIyKsHQQxt1WuJQH[] = {
/* columns rows colors chars-per-pixel */
"64 64 166 2 ",
"   c black",
".  c #1A1D22",
"X  c #1B1F22",
"o  c #1B1E23",
"O  c #1C1D21",
"+  c #1D1C22",
"@  c #1C1D22",
"#  c #1E1D23",
"$  c #1D1E22",
"%  c #1D1E23",
"&  c #1B1E25",
"*  c #1D1D25",
"=  c #1E1F24",
"-  c #1E1E26",
";  c #1D2027",
":  c #1E2037",
">  c #1F2138",
",  c #1D2238",
"<  c #1F213A",
"1  c #21212B",
"2  c #25262B",
"3  c #23232D",
"4  c #23232F",
"5  c #27282D",
"6  c #2A2B2F",
"7  c #2B2C2E",
"8  c #262431",
"9  c #252733",
"0  c #252734",
"q  c #262932",
"w  c #252934",
"e  c #262834",
"r  c #262835",
"t  c #272935",
"y  c #2A2B30",
"u  c #2C2B30",
"i  c #292D30",
"p  c #2B2C30",
"a  c #2B2C31",
"s  c #2D2C31",
"d  c #2C2D32",
"f  c #282834",
"g  c #292C35",
"h  c #202239",
"j  c #21233C",
"k  c #2E2E38",
"l  c #2A2B3D",
"z  c #2C2B3D",
"x  c #2B2C3E",
"c  c #2F323B",
"v  c #323232",
"b  c #313139",
"n  c #30303A",
"m  c #31313B",
"M  c #32303B",
"N  c #31313D",
"B  c #32323C",
"V  c #37383D",
"C  c #492D22",
"Z  c #492C24",
"A  c #482D24",
"S  c #272940",
"D  c #292E41",
"F  c #2B2E41",
"G  c #2D2F44",
"H  c #2D3043",
"J  c #323347",
"K  c #313447",
"L  c #323546",
"P  c #3D3E43",
"I  c #3B3E45",
"U  c #3C3C44",
"Y  c #3D3C44",
"T  c #3D3D45",
"R  c #3E3D45",
"E  c #3E3F44",
"W  c #3D3D47",
"Q  c #3E3E46",
"!  c #303548",
"~  c #333448",
"^  c #323548",
"/  c #323449",
"(  c #333649",
")  c #32334F",
"_  c #33354C",
"`  c #32344D",
"'  c #31364C",
"]  c #31354E",
"[  c #30344F",
"{  c #33354E",
"}  c #34344E",
"|  c #35374E",
" . c #34364F",
".. c #36384F",
"X. c #3C3E4B",
"o. c #3D3F4B",
"O. c #3D3F4C",
"+. c #3D3F4E",
"@. c #313550",
"#. c #333450",
"$. c #343450",
"%. c #343551",
"&. c #3C404C",
"*. c #3E404D",
"=. c #40424F",
"-. c #424451",
";. c #434551",
":. c #434752",
">. c #474751",
",. c #444652",
"<. c #444653",
"1. c #414358",
"2. c #4A4C5B",
"3. c #4B4D5C",
"4. c #4D4F5E",
"5. c #4E505F",
"6. c #4D4E60",
"7. c #4F4E60",
"8. c #4E4F61",
"9. c #4E4F63",
"0. c #504F61",
"q. c #4D5061",
"w. c #4E5160",
"e. c #4F5062",
"r. c #4F5064",
"t. c #515062",
"y. c #907F2D",
"u. c #917E2F",
"i. c #907F2F",
"p. c #7B7D8A",
"a. c #7B7F8B",
"s. c #7C7E8B",
"d. c #7D7F8C",
"f. c #7C7E8D",
"g. c #848490",
"h. c #8C8C96",
"j. c #9898A0",
"k. c #9898A2",
"l. c #A8A8A6",
"z. c gray66",
"x. c #A8AAA9",
"c. c #B3B3B5",
"v. c #B2B1B6",
"b. c #B3B2B7",
"n. c #B4B2B7",
"m. c #B4B4B6",
"M. c #B5B5B7",
"N. c #B6B4B7",
"B. c #B3B2B8",
"V. c #B4B3B8",
"C. c #B5B3B8",
"Z. c #B5B2B9",
"A. c #B4B3B9",
"S. c #B3B4B8",
"D. c #B3B4B9",
"F. c #B5B4B9",
"G. c #B5B4BA",
"H. c #E2C093",
"J. c #E5C393",
"K. c #E4C294",
"L. c #E5C395",
"P. c #E7C295",
"I. c #E5C396",
"U. c #E6C496",
"Y. c gray95",
"T. c #F3F3F3",
/* pixels */
"V.V.V.V.V.V.V.V.V.V.V.V.V.V.V.V.V.V.V.V.V.^ ^ F.V.V.F.V.V.V.V.V.V.b.b.V.B.V.^ ^ V.V.V.V.V.V.V.V.V.V.V.V.V.V.V.V.V.V.V.V.V.V.V.V.",
"V.V.V.V.V.V.V.V.V.V.V.V.V.V.V.V.V.V.V.V.V.^ ^ ^ V.V.V.V.V.V.V.F.V.N.V.V.V.^ ^ ^ V.V.V.V.V.V.V.V.V.V.V.V.V.V.V.V.V.V.V.V.V.V.V.V.",
"V.V.V.V.V.V.V.V.V.V.V.V.V.V.V.V.V.V.V.V.V.^ ^ ^ ^ ^ ^ ^ ^ ^ ^ ^ ^ ^ ^ ^ ^ ^ ^ ^ V.V.V.V.V.V.V.V.V.V.V.V.V.V.V.V.V.V.V.V.V.V.V.V.",
"V.V.V.V.V.V.V.V.V.V.V.V.V.V.V.V.V.V.F.V.V.^ ^ ^ ^ ^ ^ ^ ^ ^ ^ ^ ^ ^ ^ ^ ^ ^ ^ ^ V.V.V.V.V.V.V.V.V.V.V.V.V.V.V.V.V.V.V.V.V.V.V.V.",
"V.V.V.V.V.V.V.V.V.V.V.V.V.V.V.V.V.V.V.V.V.^ ^ ^ ^ ^ ^ ^ ^ ^ ^ ^ ^ ^ ^ ^ K ^ ^ ^ V.V.V.V.V.V.V.V.V.V.V.V.V.V.V.V.V.V.V.V.V.V.V.V.",
"V.V.V.V.V.V.V.V.V.V.V.V.V.V.V.V.V.V.V.V.F.^ ^ K ^ ^ ^ ^ ^ ^ ^ K ^ ^ ^ ^ ^ ^ K ^ V.V.V.V.V.V.V.V.V.V.V.V.V.V.V.V.V.V.V.V.V.V.V.V.",
"V.V.V.V.V.V.V.V.V.V.V.V.V.V.V.V.b.V.V.V.V.^ ^ K ^ ^ K ^ ^ ^ ^ ^ K ^ ^ ^ ^ ^ ^ ^ V.V.V.V.V.V.V.V.V.V.V.V.V.V.V.V.V.V.V.V.V.V.V.V.",
"V.V.V.V.V.V.V.V.V.V.V.V.V.V.V.V.V.V.V.V.V.^ ^ ^ l.T.T.b N b b N b ,.T.T.z.^ ^ ^ V.V.V.V.V.V.V.V.V.V.V.V.V.V.V.V.V.V.V.V.V.V.V.V.",
"V.V.V.V.V.V.V.V.V.V.V.V.V.V.V.V.V.V.V.V.V.b ^ ^ ^ ^ z.b b b N b b W z.^ ^ ^ ^ c V.V.V.V.V.V.V.V.V.V.V.V.V.V.V.V.V.V.V.V.V.V.V.V.",
"V.V.V.V.V.V.V.V.V.V.V.V.V.V.V.V.V.V.V.S.V.b ^ ^ ^ ^ S h , h h , h j S ^ ^ ^ ^ b V.V.V.V.V.V.V.V.V.V.V.V.V.V.V.V.V.V.V.V.V.V.V.V.",
"V.V.V.V.V.V.V.V.V.V.V.V.V.V.V.V.V.V.F.V.b.b ^ K ^ J x x z x x x x x l K ^ ^ ^ b V.V.V.V.V.V.V.V.V.V.V.V.V.V.V.V.V.V.V.V.V.V.V.V.",
"V.V.V.V.V.V.V.V.V.V.V.V.V.V.V.V.V.V.V.V.V.b ^ ^ ^ , L.L.L.J.L.L.L.L.L., ^ ^ ^ b V.V.V.V.V.V.V.V.V.V.V.V.V.V.V.V.V.V.V.V.V.V.V.V.",
"V.V.V.V.V.V.V.V.V.V.V.V.V.V.V.V.V.V.V.V.F.b b ^ , , L.L.L.L.L.J.L.L.L.: : ^ b b V.V.V.V.V.V.V.V.V.V.V.V.V.V.V.V.V.V.V.V.V.V.V.V.",
"V.V.V.V.V.V.V.V.V.V.V.V.V.V.V.V.N.V.V.V.V.b b ^ , L.L.L.L.L.L.L.L.L.J.L., ^ b b V.V.V.V.V.V.V.V.V.V.V.V.V.V.V.V.V.V.V.V.V.V.V.V.",
"V.V.V.V.V.V.V.V.V.V.V.V.V.V.V.V.V.V.V.S.V., b ^ , L.L.L.        H.L.L.L., ^ b : V.V.V.V.V.V.V.V.V.V.V.V.V.V.V.V.V.V.V.V.V.V.V.V.",
"V.V.V.V.V.V.V.V.V.V.V.V.V.V.V.V.V.V.V.S.F.N.b b { L.L.L.L.L.L.L.L.L.L.L.{ b b V.V.V.V.V.V.V.V.V.V.V.V.V.V.V.V.V.V.V.V.V.V.V.V.V.",
"V.V.V.V.V.V.V.V.V.V.F.V.V.V.V.V.V.V.V.N.V.V.b b b #.{ { L.U.L.U. .{ { { b b b V.V.b.b.N.V.V.V.V.V.V.V.V.V.V.V.V.V.V.V.V.V.V.V.V.",
"V.V.V.V.V.V.V.V.V.V.V.V.V.V.F.V.V.F.S.V.{ { { { 8.{ #.{ { { {  .{ {  .{ 8.{ { { { V.F.V.V.V.V.B.V.V.V.V.V.V.V.V.V.V.V.V.V.V.V.V.",
"V.V.V.V.V.V.V.V.V.V.V.V.V.F.V.V.V.V.{ { ) { { 8.8.5.8.{  .{ { { { ..8.8.0.8.{ { %.{ { V.V.b.V.V.V.V.V.V.V.V.V.V.V.V.V.V.V.V.V.V.",
"V.V.V.V.V.V.V.V.V.V.V.V.V.V.V.V.V.{ { #.e.8.8.8.8.5.8.8.8.8.8.8.8.8.8.8.5.8.e.8.8.{ { #.V.F.F.V.V.V.V.V.V.V.V.V.V.V.V.V.V.V.V.V.",
"V.V.V.V.V.V.V.V.V.b.V.V.N.V.S.V.{ { { 8.8.8.8.8.8.8.8.8.{ 5.8.{ t.8.8.8.8.8.8.8.8.8.{ { #.V.b.V.V.V.V.V.V.V.V.V.V.V.V.V.V.V.V.V.",
"V.V.V.V.V.V.V.V.F.V.F.V.V.V.V.N.%.{ { 8.8.8.8.8.8.8.e.{  .{ { { {  .8.5.8.8.8.8.8.8.{ {  .V.V.V.V.V.V.V.V.V.V.V.V.V.V.V.V.V.V.V.",
"V.V.V.V.V.V.V.V.V.V.V.V.S.V.V.{ { { e.5.8. .{ { { #.{ { { e e { { { { { { { { { 8.8.8.{ #.{ V.V.V.V.V.V.V.V.V.V.V.V.V.V.V.V.V.V.",
"V.V.V.V.V.V.V.V.V.V.V.b.V.N.{ { W 8.8.8.{ { { { e e e e q e e e e e e q q { { { { 8.0.8.W { { V.V.V.V.V.V.V.V.V.V.V.V.V.V.V.V.V.",
"V.V.V.V.V.V.V.V.V.V.V.V.V.V.{ W W W W 8.{ 8.8.e e 8.e e q 9 e e e e e 8.e q 8.8.{ 8.W W W W { V.V.V.V.V.V.V.V.F.V.V.V.V.V.V.V.V.",
"V.V.V.V.V.V.V.V.V.V.V.V.V.F.{ W W W W 8.8.5.8.8.8.8.8.8.0 8.8.e 8.8.8.8.8.8.8.8.4.8.W W W W { n.n.V.V.V.V.V.V.V.V.V.V.V.V.V.V.V.",
"V.V.V.V.V.V.V.V.V.V.b.V.V.{ { W W W W 8.8.8.8.e.8.8.8.8.8.8.8.8.8.r.8.8.8.8.8.8.8.4.W W W W { { V.V.V.b.V.V.N.S.V.V.V.V.V.V.V.V.",
"V.V.V.V.V.V.V.V.V.N.V.V.V.{ % W W W I W 8.8.8.8.O.O.8.8.8.8.8.8.8.8.8.O.O.e.8.8.8.W W W W W % { V.V.V.V.V.V.V.F.V.V.V.V.V.V.V.V.",
"V.V.V.V.V.V.V.V.V.V.V.h.{ { W W W W W W P 8.8.8.8.O.O.O.8.8.e.e.O.O.O.O.8.8.8.8.I W W W W W P { #.S.V.V.V.V.V.V.V.V.V.V.V.V.V.V.",
"V.V.V.V.V.V.V.V.V.V.V.h.{ o W W W W W W W 8.O.O.e.8.5.8.8.8.8.8.8.8.8.8.e.&.o.8.W W W W W W W % { V.N.V.V.V.V.V.V.V.V.V.V.V.V.V.",
"V.V.V.V.V.V.V.V.n.b.{ { { % W W W W W W % % 8.O.8.8.o.O.O.8.8.O.O.o.O.8.8.O.8.o % W W W W W W % { { V.V.V.V.V.V.V.V.V.V.V.V.V.V.",
"V.V.V.V.V.V.V.V.V.n.{ H 4 -.W W W W W 2 % % 8.2.8.8.3.2.O.8.e.O.2.2.2.e.8.2.4.o % 2 W W W W W -.4 { N.V.V.V.V.N.V.V.V.V.V.V.V.V.",
"V.V.V.S.V.V.V.V.V.F.{ D % e.W W W W W % % % 8.8.8.8.8.8.O.8.8.O.e.8.8.0.8.8.8.% % % W W W W W 0.% { V.V.V.V.V.V.V.V.V.V.V.V.V.V.",
"V.V.V.V.F.F.V.V.F.{ { D % e.5.W W W % % % % % 8.8.e.8.8.e.8.8.8.e.8.8.8.8.8.% % % % % W W W 8.8.% { %.V.V.V.V.V.V.V.V.V.V.V.V.V.",
"V.V.V.V.V.V.V.V.V.{ % k 8.8.8.8.8.8.% % % % C A e W i.e e i.i.e f v i.W e A A % % = % 5.4.8.8.8.8.% { V.V.V.V.V.V.V.V.V.V.V.V.V.",
"V.V.V.N.V.V.V.V.i W 8.8.8.8.8.8.8.e.% % o % A A e W i.e e i.i.e e v i.W e C A % % % o 8.8.8.8.8.e.8.W i V.V.V.V.V.V.V.V.V.V.V.V.",
"V.V.V.V.V.V.V.u W I 8.8.e.8.8.8.% o % % % % { A e W W e e i.i.e e g W W e A { % % % % % % 8.8.8.8.8.W P i V.V.F.V.V.V.V.V.V.V.V.",
"V.V.V.V.V.V.V.i i P W P W 8.8.% % % % % % % { { { { { { { { { { { {  .{ { { { % % % % % % % 8.8.W W W i i V.V.V.V.V.V.V.V.V.V.V.",
"V.V.V.V.V.V.V.#.s 7 W V i i % % % % = % % % % { { { { { { { { { { { { { { { % % % % % % % % % 6 6 W i 6 { V.V.V.V.V.V.V.V.V.V.V.",
"V.V.V.F.V.V.V.#.i u i i i i % % % % % % % % e.{ { { { { { { { { #. .{ { { { e.% % % % % % % % i i i i i { V.V.V.V.V.V.V.V.V.V.V.",
"V.b.V.V.V.V.{ { % s i 5 = % % % % % % % % e.8.8.8.{ { { { { { { #.{ { { e.8.8.8.% % % % % % = % % i i % { { j.V.V.V.V.V.V.V.b.V.",
"V.V.V.b.V.V.#.% % % % % % % % % % % % % 8.8.8.8.8.8.8.8.{ { { { 8.5.8.8.8.8.8.8.8.% % % % % % % % % % % o { j.V.b.V.V.V.V.V.V.V.",
"F.V.V.V.V.S.{ o % % % % % = % % % % = % O.8.8.8.8.8.8.8.8.{ { 8.8.8.8.8.8.8.8.8.O.% % % % % % % % % % % % { j.V.V.V.V.V.V.V.V.V.",
"V.V.V.N.N.#.{ % % % % % % % % % % % % 8.O.8.8.8.8.8.8.5.5.% % 8.8.8.8.8.8.8.8.5.O.8.% % % % % % % % % % % { { { V.V.V.F.N.V.V.V.",
"V.V.V.V.V.{ % % % % % % = % % % = % % 8.O.8.8.o.8.8.8.8.5.% % e.8.8.8.8.8.O.5.8.o.r.% % % % = % % % % % % % G { V.V.V.V.V.V.V.V.",
"V.V.V.V.V.{ % % % % % % % % % % % % % e.e.8.o.8.8.8.8.8.8.% % e.8.4.8.8.8.8.O.8.8.8.% % % % % % % = % % % % G { S.V.V.V.V.V.b.V.",
"V.V.V.S. .{ % % % % % % % % % % % % & e.8.e.O.8.5.8.8.e.8.% % 8.8.8.8.8.5.8.O.8.8.5.% % % % % % % % % % % = G { %.V.V.V.V.V.V.V.",
"V.V.V.V.{ % % % % % % % % % % % % % 8.e.8.O.O.8.8.8.8.O.% % % % o.=.8.8.8.8.O.O.8.8.8.% % % % % % % % % % = % % { F.V.V.V.V.V.V.",
"V.N.V.#.{ % % = = = % % % % % % o % 8.8.8.8.e.8.8.O.O.O.% o % % o.O.O.O.8.8.8.8.4.5.8.% % % % % = % % % % % % % { { V.V.V.V.V.V.",
"V.F.V.#.% % % % % % % 9 { { { % % % 8.8.8.e.8.8.8.O.o.% % = % % % 1 O.O.8.0.8.8.8.8.8.% % %  .{  .% % % % % % % % { V.V.V.V.V.N.",
"V.V.V.{ % % = % % { #.{ { { { % % W 8.8.8.8.8.8.&.O.{ % % % % % % ; { O.&.8.8.8.8.8.8.W % % { { { { { % % % = % % { N.V.V.V.V.V.",
"V.V.V.{ % % { { { V.V.V.N.V.{ { % W W 8.5.8.8.8.O.V.{ { { % % { { { { V.O.8.8.8.8.8.W W % { { V.V.b.V.{ { { 4 o o ) V.V.V.V.V.V.",
"V.S.V.{ { { { V.V.V.V.V.V.V.V.{ { P W W e.8.8.W V.V.V.{ { {  .{ { 1.V.V.V.W 0.8.8.W W W { { N.V.V.V.V.F.V.{ { { { { V.V.V.V.V.b.",
"V.b.V.s.s.s.s.V.F.V.V.V.V.V.F.f.{ W W W ,.,.-.W V.V.N.s.{ { { { p.g.F.V.V.W -.,.,.W W W { p.S.V.V.F.V.V.F.f.s.s.f.s.V.V.F.V.V.V.",
"V.V.V.V.b.V.F.F.V.V.V.b.V.S.V.V.{ W W W W P W W V.V.V.V.{ #.{ { b.V.V.V.V.W W W W W W W #.V.V.S.V.V.N.V.V.V.V.V.V.V.V.V.V.V.V.V.",
"V.b.V.b.V.V.V.V.V.V.V.F.V.V.b.V.n.P W W W W W I b.V.V.V.V.{ { b.V.V.V.N.V.W W W W W W W V.V.V.V.V.V.V.V.V.V.V.V.V.b.S.b.V.N.V.V.",
"V.V.V.V.V.V.V.V.V.V.V.V.V.V.V.V.n.W W W W W W V.V.n.n.n.V.#.#.V.V.V.F.V.V.V.W W W W W W N.V.b.b.V.V.V.V.V.V.V.V.V.V.V.V.V.V.V.V.",
"V.V.V.V.V.V.V.V.V.V.V.V.V.V.V.V.n.W W W W W W V.V.V.F.V.V.V.V.V.V.V.V.V.V.V.W W W W W W V.V.V.V.V.V.V.V.V.V.V.V.V.V.V.V.V.V.V.V.",
"V.V.V.V.V.V.V.V.V.b.V.V.V.V.V.V.V.W W W W W V.V.V.V.n.V.V.V.V.V.V.F.V.V.V.V.F.W W W P W V.V.V.V.V.V.V.V.V.V.V.V.V.V.V.V.V.V.V.V.",
"V.V.V.V.V.V.V.V.V.V.V.V.V.V.V.V.V.i W W W W V.V.V.V.V.V.V.S.V.V.V.F.V.V.V.V.N.W W W P i F.V.b.V.V.V.V.V.V.V.V.V.V.V.V.V.V.V.V.V.",
"V.V.V.V.V.V.V.V.V.V.V.V.F.V.V.V.s 7 i W W i V.V.V.V.V.V.V.V.V.V.V.V.V.V.V.F.V.y P W i i i V.N.V.V.V.V.V.V.V.V.V.V.V.V.V.V.V.V.V.",
"V.V.V.V.V.V.V.V.V.V.V.V.V.V.V.V.7 7 i i i i V.V.V.V.V.F.b.V.V.V.V.V.V.V.V.b.V.u 6 7 i 7 i V.V.V.V.V.V.V.V.V.V.V.V.V.V.V.V.V.V.V.",
"V.V.V.V.V.V.V.V.V.V.V.V.V.S.i i 7 6 i i i F.V.V.V.V.V.V.V.S.V.V.V.V.V.V.V.V.V.V.7 i i i i s s V.V.V.V.V.V.V.V.V.V.V.V.V.V.V.V.V.",
"V.V.V.V.V.V.V.V.V.V.V.V.V.S.i i 7 7 6 i V.V.N.n.V.V.V.V.V.V.V.V.V.V.V.V.V.V.V.V.n.6 i i i s s V.V.V.V.V.V.V.V.V.V.V.V.V.V.V.V.V."
};
