/* XPM */
static char *_1b5e5717da94cb1936c49349610bbafljz8Hu6ywKTlOA7u[] = {
/* columns rows colors chars-per-pixel */
"64 64 60 1 ",
"  c black",
". c #010000",
"X c #000100",
"o c #010101",
"O c #020001",
"+ c #000201",
"@ c #000002",
"# c #0D0C07",
"$ c #211B0D",
"% c #241E0E",
"& c #3D3117",
"* c #3C3217",
"= c #564821",
"- c #5C4F25",
"; c #67562A",
": c #74632F",
"> c #8A7637",
", c #A1893F",
"< c #A28A40",
"1 c #A38B41",
"2 c #C5A74F",
"3 c #DDBB59",
"4 c #F3CF5F",
"5 c #F3CF61",
"6 c #F4CE61",
"7 c #FFD765",
"8 c #FDD863",
"9 c #FDD865",
"0 c #FED964",
"q c #FFD964",
"w c #FDDA64",
"e c #FFDA65",
"r c #FDD866",
"t c #FDD967",
"y c #FFD866",
"u c #FED966",
"i c #FFD867",
"p c #FED967",
"a c #FFD967",
"s c #FDDA66",
"d c #FFDA67",
"f c #B3B3B5",
"g c #B3B2B7",
"h c #B2B3B7",
"j c #B5B3B6",
"k c #B3B4B6",
"l c #B4B4B6",
"z c #B5B5B7",
"x c #B3B2B8",
"c c #B4B3B8",
"v c #B5B3B8",
"b c #B4B3B9",
"n c #B4B3BB",
"m c #B3B4B8",
"M c #B5B4B9",
"N c #B6B4B9",
"B c #DDC78B",
"V c #DDC78E",
"C c #DCC88B",
"Z c #DCC88D",
/* pixels */
"cccccccccccccccccccccccccccccccccccccccccccccccccccccccccccccccc",
"cccccccccccccccccccccccccccccccccccccccccccccccccccccccccccccccc",
"cccccccccccccccccccccccccccccccccccccccccccccccccccccccccccccccc",
"cccccccccccccccccccccccccccccccccccccccccccccccccccccccccccccccc",
"cccccccccccccccccccccccccccccccccccccccccccccccccccccccccccccccc",
"cccccccccccccccccccccccccccccccccccccccccccccccccccccccccccccccc",
"cccccccccccccccccccccccccccccccccccccccccccccccccccccccccccccccc",
"cccccccccccccccccccccccccccccccccccccccccccccccccccccccccccccccc",
"cccccccccccccccccccccccccccccccccccccccccccccccccccccccccccccccc",
"cccccccccccccccccccccccccccccccccccccccccccccccccccccccccccccccc",
"cccccccccccccccccccccccccccccccccccccccccccccccccccccccccccccccc",
"cccccccccccccccccccccccccccccccccccccccccccccccccccccccccccccccc",
"cccccccccccccccccccccccccccccccccccccccccccccccccccccccccccccccc",
"cccccccccccccccccccccccccccccccccccccccccccccccccccccccccccccccc",
"cccccccccccccccccccccccccccccccccccccccccccccccccccccccccccccccc",
"cccccccccccccccccccccccccccccccccccccccccccccccccccccccccccccccc",
"cccccccccccccmcNccccccccccccccccccccccccchcccccccccccccccccccccc",
"ccccccccccccchccccccccccccccccccccccccccmcclcclccccccccccccccccc",
"cccccccccccccccccccccccccccccccccccccccccccccccmcccccccccccccccc",
"cccccccccccccmclccccccccccccccccccccccccccccccNccccccccccccccccc",
"ccccccccmcllchcccccccccccccccccccccccccccccNlcchcccccccccccccccc",
"cccccccccclccccNcccccccccccccccccccccccccNcNcccNcccccccccccccccc",
"ccccccccccccccccuuuuuuuuuuuuuuuuuuuuuuuuu7uuuuuccccccccccccccccc",
"cccccccccccclhBuuuuuuuuuuuuuuuuuuuuuuuuuuuuuuuuucccccccccccccccc",
"ccccccccccccccZuuuuuuuuuuuuuuuuuuuuuuuuuuuuuuuuummcccccccccccccc",
"ccccccccccccccZuuuuuuuuuuuuuuuuuuuuuuuuuuuuuuuuuuucccccccccccccc",
"ccccccccccccccZuu#       uuuuuuuuuuuuuuuu       uucchlcccccccccc",
"ccccccccccccccZuu;-      ,uuuuuuuuuuuuu11      -uucchccccccccccc",
"ccccccccccccccZuuuu       uuuuuuuuuuuuu        uuucccccccccccccc",
"ccccccccccccccZuuuuu        uu6 u> uuu       uuuuucjcchccccccccc",
"ccccccccccccccZuuuuu22      *u5 *$ u=*      2uuuuuccmccccccccccc",
"ccccccccccccccZuuuuuuu       u5    u%       uuuuuuhcccmccccccccc",
"ccccccccccccccZuuuuuuu                      uuuuuucccccccccccccc",
"ccccccccccccccZuuuuuuuuuu                uuuuuuuuucccccccccccccc",
"ccccccccccccccZuuuuuuuuuu                uuuuuuuuucccccccccccccc",
"ccccccccccccccZuuuuuuuuuu8             uuuuuuuuuuucccccccccccccc",
"ccccccccccccccZuuuuuuuuuuuuu          uuuuuuuuuuuucccccccccccccc",
"ccccccccccccccZuuuuuuuuuuuuu          uuuuuuuuuuuucccccccccccccc",
"ccccccccccccccZuuuuuuuuuuuuuu       3uuuuuuuuuuuuucccccccccccccc",
"ccccccccccccccZuuuuuuuuuuuuuuu5    uuuuuuuuuuuuuuucccccccccccccc",
"ccccccccccccccVuuuuuuuuuuuuuuu4    uuuuuuuuuuuuuuulccccccccccccc",
"cccccccccccNccCuuuuuuuuu7uuuuuuu :uuuuuuuuuuuuuuccchcccccccccccc",
"ccccccccccccccccuuuuuuuuuuuuuuuuuuuuuuuuuuuuuuumccccNccccccccccc",
"cccccccclllllllluuuuuuuuuuuuuuuuuuuuuuuuuuuuuuucccccNccccccccccc",
"cccccccchcccchcmccccccccccmcNccccccccccccccmcmccccccmccccccccccc",
"cccccccccccccNccccccccccchccccccckccccccchhhcccccccccccccccccccc",
"ccccccccccccNcclcccccccccccccchcclccccmccccccccccccccccccccccccc",
"ccccccccNNcccNcccccccccccccccmmcccccccccchcxcccccclccmcccccccccc",
"cccccccccccccccccccccccccccccccccccccccccccccccccccccccccccccccc",
"ccccccccccccccccccccccccccccccccccccccccccccccccccccccclcccccccc",
"ccccccccccccccccccccccccccccccccccccccccccccccccccccclllllllllll",
"cccccccccccccccccccccccccccccccccccccccccccccccccccccccccccccccc",
"ccccccccccccccccccccccclcccccccccccccccccccccccccccccccccccccccc",
"cccccccccccccccccccccccccccccccccccccccccccccccccccchhhhhhhhhhhh",
"ccccccccNNNNNNNNcccccccccccccccccccccccccccccccccccccccccccccccc",
"cccccccccccccccccccccccccccccccccccccccccccccccccccccccccccccccc",
"hhhhccccccccccccccccllllllllllllcccccccccccccccccccccccccccccccc",
"cccccccccccccccccccccccccccccccccccccccccccccccccccccccccccccccc",
"cccccccccccccccccccccccccccccccccccccccccccccccccccccccccccccccc",
"cccccccccccccccccccccccccccccccccccccccccccccccccccccccccccccccc",
"cccccccccccccccccccccccccccccccccccccccccccccccccccccccccccccccc",
"cccccccccccccccccccccccccccccccccccccccccccccccccccccccccccccccc",
"cccccccccccccccccccccccccccccccccccccccccccccccccccccccccccccccc",
"cccccccccccccccccccccccccccccccccccccccccccccccccccccccccccccccc"
};
